<mxfile host="app.diagrams.net" modified="2021-04-02T13:58:06.715Z" agent="5.0 (Windows)" etag="9Ca__TS7nFoF6khO-0Oj" version="14.5.6" type="github">
  <diagram id="ARu9za_8Kzt5DuU-pQp1" name="Page-1">
    <mxGraphModel dx="768" dy="457" grid="1" gridSize="10" guides="1" tooltips="1" connect="1" arrows="1" fold="1" page="1" pageScale="1" pageWidth="827" pageHeight="1169" math="0" shadow="0">
      <root>
        <mxCell id="0" />
        <mxCell id="1" parent="0" />
        <mxCell id="EwHTVLRrVT_rf0cmMfTu-69" value="" style="endArrow=none;dashed=1;html=1;strokeWidth=3;" parent="1" edge="1">
          <mxGeometry width="50" height="50" relative="1" as="geometry">
            <mxPoint x="450" y="262" as="sourcePoint" />
            <mxPoint x="570" y="262" as="targetPoint" />
          </mxGeometry>
        </mxCell>
        <mxCell id="EwHTVLRrVT_rf0cmMfTu-48" value="" style="rounded=0;whiteSpace=wrap;html=1;strokeColor=#000000;strokeWidth=3;fillColor=#FFFFFF;dashed=1;" parent="1" vertex="1">
          <mxGeometry x="80" y="311" width="140" height="250" as="geometry" />
        </mxCell>
        <mxCell id="EwHTVLRrVT_rf0cmMfTu-8" style="edgeStyle=orthogonalEdgeStyle;rounded=0;orthogonalLoop=1;jettySize=auto;html=1;exitX=0;exitY=0.645;exitDx=0;exitDy=0;exitPerimeter=0;endArrow=oval;endFill=1;endSize=10;strokeWidth=3;" parent="1" source="EwHTVLRrVT_rf0cmMfTu-1" edge="1">
          <mxGeometry relative="1" as="geometry">
            <mxPoint x="487" y="684" as="targetPoint" />
          </mxGeometry>
        </mxCell>
        <mxCell id="EwHTVLRrVT_rf0cmMfTu-10" style="edgeStyle=orthogonalEdgeStyle;rounded=0;orthogonalLoop=1;jettySize=auto;html=1;exitX=1;exitY=0.645;exitDx=0;exitDy=0;exitPerimeter=0;endArrow=oval;endFill=1;endSize=10;strokeWidth=3;" parent="1" source="EwHTVLRrVT_rf0cmMfTu-1" edge="1">
          <mxGeometry relative="1" as="geometry">
            <mxPoint x="647" y="684" as="targetPoint" />
          </mxGeometry>
        </mxCell>
        <mxCell id="EwHTVLRrVT_rf0cmMfTu-1" value="" style="pointerEvents=1;verticalLabelPosition=bottom;shadow=0;dashed=0;align=center;html=1;verticalAlign=top;shape=mxgraph.electrical.inductors.inductor_5;strokeWidth=3;" parent="1" vertex="1">
          <mxGeometry x="497" y="665" width="140" height="30" as="geometry" />
        </mxCell>
        <mxCell id="EwHTVLRrVT_rf0cmMfTu-6" style="edgeStyle=orthogonalEdgeStyle;rounded=0;orthogonalLoop=1;jettySize=auto;html=1;exitX=0.5;exitY=1;exitDx=0;exitDy=0;exitPerimeter=0;endArrow=oval;endFill=1;strokeWidth=3;endSize=10;" parent="1" source="EwHTVLRrVT_rf0cmMfTu-2" edge="1">
          <mxGeometry relative="1" as="geometry">
            <mxPoint x="325" y="635" as="targetPoint" />
          </mxGeometry>
        </mxCell>
        <mxCell id="EwHTVLRrVT_rf0cmMfTu-45" style="edgeStyle=orthogonalEdgeStyle;rounded=0;orthogonalLoop=1;jettySize=auto;html=1;exitX=1;exitY=0.25;exitDx=0;exitDy=0;exitPerimeter=0;startArrow=none;startFill=0;startSize=10;endArrow=oval;endFill=1;endSize=10;strokeWidth=3;" parent="1" source="EwHTVLRrVT_rf0cmMfTu-2" edge="1">
          <mxGeometry relative="1" as="geometry">
            <mxPoint x="218" y="685.5294117647059" as="targetPoint" />
          </mxGeometry>
        </mxCell>
        <mxCell id="EwHTVLRrVT_rf0cmMfTu-2" value="" style="pointerEvents=1;verticalLabelPosition=bottom;shadow=0;dashed=0;align=center;html=1;verticalAlign=top;shape=mxgraph.electrical.resistors.potentiometer_1;strokeWidth=3;rotation=-180;" parent="1" vertex="1">
          <mxGeometry x="235" y="655" width="100" height="40" as="geometry" />
        </mxCell>
        <mxCell id="EwHTVLRrVT_rf0cmMfTu-5" value="" style="rounded=0;whiteSpace=wrap;html=1;strokeWidth=3;strokeColor=#FFFFFF;" parent="1" vertex="1">
          <mxGeometry x="320" y="655" width="20" height="60" as="geometry" />
        </mxCell>
        <mxCell id="EwHTVLRrVT_rf0cmMfTu-9" value="" style="endArrow=none;html=1;strokeWidth=3;rounded=0;" parent="1" edge="1">
          <mxGeometry width="50" height="50" relative="1" as="geometry">
            <mxPoint x="320" y="635" as="sourcePoint" />
            <mxPoint x="482" y="685" as="targetPoint" />
            <Array as="points">
              <mxPoint x="400" y="635" />
              <mxPoint x="400" y="685" />
            </Array>
          </mxGeometry>
        </mxCell>
        <mxCell id="EwHTVLRrVT_rf0cmMfTu-14" style="edgeStyle=orthogonalEdgeStyle;rounded=0;orthogonalLoop=1;jettySize=auto;html=1;exitX=1;exitY=0.645;exitDx=0;exitDy=0;exitPerimeter=0;endArrow=oval;endFill=1;endSize=10;strokeWidth=3;" parent="1" source="EwHTVLRrVT_rf0cmMfTu-11" edge="1">
          <mxGeometry relative="1" as="geometry">
            <mxPoint x="757" y="499" as="targetPoint" />
          </mxGeometry>
        </mxCell>
        <mxCell id="EwHTVLRrVT_rf0cmMfTu-15" style="edgeStyle=orthogonalEdgeStyle;rounded=0;orthogonalLoop=1;jettySize=auto;html=1;exitX=0;exitY=0.645;exitDx=0;exitDy=0;exitPerimeter=0;endArrow=oval;endFill=1;endSize=10;strokeWidth=3;" parent="1" source="EwHTVLRrVT_rf0cmMfTu-11" edge="1">
          <mxGeometry relative="1" as="geometry">
            <mxPoint x="597" y="499" as="targetPoint" />
          </mxGeometry>
        </mxCell>
        <mxCell id="EwHTVLRrVT_rf0cmMfTu-11" value="" style="pointerEvents=1;verticalLabelPosition=bottom;shadow=0;dashed=0;align=center;html=1;verticalAlign=top;shape=mxgraph.electrical.inductors.inductor_5;strokeWidth=3;" parent="1" vertex="1">
          <mxGeometry x="607" y="481" width="140" height="30" as="geometry" />
        </mxCell>
        <mxCell id="EwHTVLRrVT_rf0cmMfTu-21" value="" style="endArrow=oval;html=1;strokeWidth=3;rounded=0;entryX=0;entryY=1;entryDx=0;entryDy=0;entryPerimeter=0;endFill=1;endSize=10;" parent="1" target="EwHTVLRrVT_rf0cmMfTu-25" edge="1">
          <mxGeometry width="50" height="50" relative="1" as="geometry">
            <mxPoint x="647" y="685" as="sourcePoint" />
            <mxPoint x="627" y="365" as="targetPoint" />
            <Array as="points">
              <mxPoint x="827" y="685" />
              <mxPoint x="827" y="365" />
              <mxPoint x="582" y="365" />
            </Array>
          </mxGeometry>
        </mxCell>
        <mxCell id="EwHTVLRrVT_rf0cmMfTu-22" value="" style="pointerEvents=1;verticalLabelPosition=bottom;shadow=0;dashed=0;align=center;html=1;verticalAlign=top;shape=mxgraph.electrical.miscellaneous.fuse_2;strokeColor=#FFFFFF;strokeWidth=3;" parent="1" vertex="1">
          <mxGeometry x="467" y="205" width="100" height="20" as="geometry" />
        </mxCell>
        <mxCell id="EwHTVLRrVT_rf0cmMfTu-71" style="edgeStyle=orthogonalEdgeStyle;rounded=0;orthogonalLoop=1;jettySize=auto;html=1;exitX=1;exitY=1;exitDx=0;exitDy=0;exitPerimeter=0;startArrow=none;startFill=0;startSize=6;endArrow=oval;endFill=1;endSize=10;strokeWidth=3;" parent="1" source="EwHTVLRrVT_rf0cmMfTu-24" edge="1">
          <mxGeometry relative="1" as="geometry">
            <mxPoint x="467" y="190" as="targetPoint" />
          </mxGeometry>
        </mxCell>
        <mxCell id="EwHTVLRrVT_rf0cmMfTu-24" value="" style="pointerEvents=1;verticalLabelPosition=bottom;shadow=0;dashed=0;align=center;html=1;verticalAlign=top;shape=mxgraph.electrical.electro-mechanical.fuse;strokeWidth=3;fillColor=#FFFFFF;direction=north;" parent="1" vertex="1">
          <mxGeometry x="437" y="200" width="30" height="120" as="geometry" />
        </mxCell>
        <mxCell id="EwHTVLRrVT_rf0cmMfTu-70" style="edgeStyle=orthogonalEdgeStyle;rounded=0;orthogonalLoop=1;jettySize=auto;html=1;exitX=1;exitY=1;exitDx=0;exitDy=0;exitPerimeter=0;startArrow=none;startFill=0;startSize=6;endArrow=oval;endFill=1;endSize=10;strokeWidth=3;" parent="1" source="EwHTVLRrVT_rf0cmMfTu-25" edge="1">
          <mxGeometry relative="1" as="geometry">
            <mxPoint x="582" y="190" as="targetPoint" />
          </mxGeometry>
        </mxCell>
        <mxCell id="EwHTVLRrVT_rf0cmMfTu-25" value="" style="pointerEvents=1;verticalLabelPosition=bottom;shadow=0;dashed=0;align=center;html=1;verticalAlign=top;shape=mxgraph.electrical.electro-mechanical.fuse;strokeWidth=3;fillColor=#FFFFFF;direction=north;" parent="1" vertex="1">
          <mxGeometry x="552" y="200" width="30" height="120" as="geometry" />
        </mxCell>
        <mxCell id="EwHTVLRrVT_rf0cmMfTu-26" value="" style="endArrow=oval;html=1;strokeWidth=3;endFill=1;endSize=10;" parent="1" edge="1">
          <mxGeometry width="50" height="50" relative="1" as="geometry">
            <mxPoint x="757" y="501" as="sourcePoint" />
            <mxPoint x="827" y="501" as="targetPoint" />
          </mxGeometry>
        </mxCell>
        <mxCell id="EwHTVLRrVT_rf0cmMfTu-34" value="" style="group" parent="1" vertex="1" connectable="0">
          <mxGeometry x="287" y="445" width="230" height="114" as="geometry" />
        </mxCell>
        <mxCell id="EwHTVLRrVT_rf0cmMfTu-33" value="" style="endArrow=oval;startArrow=oval;html=1;strokeWidth=3;startFill=1;endFill=1;endSize=10;startSize=10;" parent="EwHTVLRrVT_rf0cmMfTu-34" edge="1">
          <mxGeometry width="50" height="50" relative="1" as="geometry">
            <mxPoint y="55" as="sourcePoint" />
            <mxPoint x="230" y="55" as="targetPoint" />
          </mxGeometry>
        </mxCell>
        <mxCell id="EwHTVLRrVT_rf0cmMfTu-27" value="" style="rounded=0;whiteSpace=wrap;html=1;strokeColor=#000000;strokeWidth=3;fillColor=#000000;" parent="EwHTVLRrVT_rf0cmMfTu-34" vertex="1">
          <mxGeometry x="47" y="36" width="130" height="40" as="geometry" />
        </mxCell>
        <mxCell id="EwHTVLRrVT_rf0cmMfTu-28" value="" style="ellipse;whiteSpace=wrap;html=1;aspect=fixed;strokeColor=#000000;strokeWidth=3;fillColor=#FFFFFF;" parent="EwHTVLRrVT_rf0cmMfTu-34" vertex="1">
          <mxGeometry x="55.5" width="114" height="114" as="geometry" />
        </mxCell>
        <mxCell id="EwHTVLRrVT_rf0cmMfTu-29" value="&lt;font style=&quot;font-size: 45px&quot;&gt;M&lt;/font&gt;" style="text;html=1;strokeColor=none;fillColor=none;align=center;verticalAlign=middle;whiteSpace=wrap;rounded=0;" parent="EwHTVLRrVT_rf0cmMfTu-34" vertex="1">
          <mxGeometry x="92.5" y="36" width="40" height="20" as="geometry" />
        </mxCell>
        <mxCell id="EwHTVLRrVT_rf0cmMfTu-32" value="" style="group" parent="EwHTVLRrVT_rf0cmMfTu-34" vertex="1" connectable="0">
          <mxGeometry x="86.5" y="76" width="52" height="10" as="geometry" />
        </mxCell>
        <mxCell id="EwHTVLRrVT_rf0cmMfTu-30" value="" style="endArrow=none;dashed=1;html=1;strokeWidth=3;" parent="EwHTVLRrVT_rf0cmMfTu-32" edge="1">
          <mxGeometry width="50" height="50" relative="1" as="geometry">
            <mxPoint x="2" y="10" as="sourcePoint" />
            <mxPoint x="52" y="10" as="targetPoint" />
          </mxGeometry>
        </mxCell>
        <mxCell id="EwHTVLRrVT_rf0cmMfTu-31" value="" style="endArrow=none;html=1;strokeWidth=3;" parent="EwHTVLRrVT_rf0cmMfTu-32" edge="1">
          <mxGeometry width="50" height="50" relative="1" as="geometry">
            <mxPoint as="sourcePoint" />
            <mxPoint x="50" as="targetPoint" />
          </mxGeometry>
        </mxCell>
        <mxCell id="EwHTVLRrVT_rf0cmMfTu-58" value="&lt;font style=&quot;font-size: 24px&quot; face=&quot;Verdana&quot;&gt;GA&lt;/font&gt;" style="text;html=1;strokeColor=none;fillColor=none;align=center;verticalAlign=middle;whiteSpace=wrap;rounded=0;dashed=1;" parent="EwHTVLRrVT_rf0cmMfTu-34" vertex="1">
          <mxGeometry x="-17" y="16" width="40" height="20" as="geometry" />
        </mxCell>
        <mxCell id="EwHTVLRrVT_rf0cmMfTu-59" value="&lt;font style=&quot;font-size: 24px&quot; face=&quot;Verdana&quot;&gt;HB&lt;/font&gt;" style="text;html=1;strokeColor=none;fillColor=none;align=center;verticalAlign=middle;whiteSpace=wrap;rounded=0;dashed=1;" parent="EwHTVLRrVT_rf0cmMfTu-34" vertex="1">
          <mxGeometry x="210" y="16" width="40" height="20" as="geometry" />
        </mxCell>
        <mxCell id="EwHTVLRrVT_rf0cmMfTu-35" value="" style="endArrow=none;html=1;strokeWidth=3;" parent="1" edge="1">
          <mxGeometry width="50" height="50" relative="1" as="geometry">
            <mxPoint x="520" y="500" as="sourcePoint" />
            <mxPoint x="590" y="500" as="targetPoint" />
          </mxGeometry>
        </mxCell>
        <mxCell id="EwHTVLRrVT_rf0cmMfTu-43" style="edgeStyle=orthogonalEdgeStyle;rounded=0;orthogonalLoop=1;jettySize=auto;html=1;exitX=0;exitY=0.25;exitDx=0;exitDy=0;exitPerimeter=0;startArrow=none;startFill=0;startSize=10;endArrow=oval;endFill=1;endSize=10;strokeWidth=3;" parent="1" source="EwHTVLRrVT_rf0cmMfTu-40" edge="1">
          <mxGeometry relative="1" as="geometry">
            <mxPoint x="237" y="500.2941176470588" as="targetPoint" />
          </mxGeometry>
        </mxCell>
        <mxCell id="EwHTVLRrVT_rf0cmMfTu-44" style="edgeStyle=orthogonalEdgeStyle;rounded=0;orthogonalLoop=1;jettySize=auto;html=1;exitX=0.46;exitY=1;exitDx=0;exitDy=0;exitPerimeter=0;startArrow=none;startFill=0;startSize=10;endArrow=oval;endFill=1;endSize=10;strokeWidth=3;" parent="1" source="EwHTVLRrVT_rf0cmMfTu-40" edge="1">
          <mxGeometry relative="1" as="geometry">
            <mxPoint x="167.70588235294122" y="360" as="targetPoint" />
          </mxGeometry>
        </mxCell>
        <mxCell id="EwHTVLRrVT_rf0cmMfTu-40" value="" style="pointerEvents=1;verticalLabelPosition=bottom;shadow=0;dashed=0;align=center;html=1;verticalAlign=top;shape=mxgraph.electrical.resistors.resistor,_adjustable_contact;strokeColor=#000000;strokeWidth=3;fillColor=#FFFFFF;rotation=-180;" parent="1" vertex="1">
          <mxGeometry x="97" y="448" width="130" height="70" as="geometry" />
        </mxCell>
        <mxCell id="EwHTVLRrVT_rf0cmMfTu-46" value="" style="endArrow=none;html=1;strokeWidth=3;rounded=0;" parent="1" edge="1">
          <mxGeometry width="50" height="50" relative="1" as="geometry">
            <mxPoint x="60" y="360" as="sourcePoint" />
            <mxPoint x="220" y="685" as="targetPoint" />
            <Array as="points">
              <mxPoint x="10" y="360" />
              <mxPoint x="10" y="685" />
            </Array>
          </mxGeometry>
        </mxCell>
        <mxCell id="EwHTVLRrVT_rf0cmMfTu-49" value="" style="endArrow=oval;html=1;strokeWidth=3;entryX=0;entryY=1;entryDx=0;entryDy=0;entryPerimeter=0;rounded=0;endFill=1;endSize=10;startArrow=oval;startFill=1;startSize=10;" parent="1" target="EwHTVLRrVT_rf0cmMfTu-24" edge="1">
          <mxGeometry width="50" height="50" relative="1" as="geometry">
            <mxPoint x="240" y="360" as="sourcePoint" />
            <mxPoint x="390" y="400" as="targetPoint" />
            <Array as="points">
              <mxPoint x="467" y="360" />
            </Array>
          </mxGeometry>
        </mxCell>
        <mxCell id="EwHTVLRrVT_rf0cmMfTu-50" value="" style="endArrow=none;html=1;strokeWidth=3;" parent="1" edge="1">
          <mxGeometry width="50" height="50" relative="1" as="geometry">
            <mxPoint x="240" y="500" as="sourcePoint" />
            <mxPoint x="290" y="500" as="targetPoint" />
          </mxGeometry>
        </mxCell>
        <mxCell id="EwHTVLRrVT_rf0cmMfTu-51" value="" style="endArrow=none;html=1;strokeWidth=3;startArrow=oval;startFill=1;endSize=6;startSize=10;" parent="1" edge="1">
          <mxGeometry width="50" height="50" relative="1" as="geometry">
            <mxPoint x="60" y="360" as="sourcePoint" />
            <mxPoint x="240" y="360" as="targetPoint" />
          </mxGeometry>
        </mxCell>
        <mxCell id="EwHTVLRrVT_rf0cmMfTu-52" value="&lt;font style=&quot;font-size: 24px&quot; face=&quot;Verdana&quot;&gt;t&lt;/font&gt;" style="text;html=1;strokeColor=none;fillColor=none;align=center;verticalAlign=middle;whiteSpace=wrap;rounded=0;dashed=1;" parent="1" vertex="1">
          <mxGeometry x="195" y="645" width="40" height="20" as="geometry" />
        </mxCell>
        <mxCell id="EwHTVLRrVT_rf0cmMfTu-54" value="&lt;font style=&quot;font-size: 24px&quot; face=&quot;Verdana&quot;&gt;s&lt;/font&gt;" style="text;html=1;strokeColor=none;fillColor=none;align=center;verticalAlign=middle;whiteSpace=wrap;rounded=0;dashed=1;" parent="1" vertex="1">
          <mxGeometry x="310" y="600" width="40" height="20" as="geometry" />
        </mxCell>
        <mxCell id="EwHTVLRrVT_rf0cmMfTu-55" value="&lt;font style=&quot;font-size: 24px&quot; face=&quot;Verdana&quot;&gt;C&lt;/font&gt;" style="text;html=1;strokeColor=none;fillColor=none;align=center;verticalAlign=middle;whiteSpace=wrap;rounded=0;dashed=1;" parent="1" vertex="1">
          <mxGeometry x="467" y="643" width="40" height="20" as="geometry" />
        </mxCell>
        <mxCell id="EwHTVLRrVT_rf0cmMfTu-57" value="&lt;font style=&quot;font-size: 24px&quot; face=&quot;Verdana&quot;&gt;D&lt;/font&gt;" style="text;html=1;strokeColor=none;fillColor=none;align=center;verticalAlign=middle;whiteSpace=wrap;rounded=0;dashed=1;" parent="1" vertex="1">
          <mxGeometry x="627" y="643" width="40" height="20" as="geometry" />
        </mxCell>
        <mxCell id="EwHTVLRrVT_rf0cmMfTu-60" value="" style="html=1;shadow=0;dashed=0;align=center;verticalAlign=middle;shape=mxgraph.arrows2.uTurnArrow;dy=3.12;arrowHead=24.1;dx2=14.49;strokeColor=#000000;strokeWidth=3;fillColor=#FFFFFF;rotation=90;" parent="1" vertex="1">
          <mxGeometry x="392" y="370" width="14" height="66.5" as="geometry" />
        </mxCell>
        <mxCell id="EwHTVLRrVT_rf0cmMfTu-62" value="&lt;font style=&quot;font-size: 24px&quot; face=&quot;Verdana&quot;&gt;E&lt;/font&gt;" style="text;html=1;strokeColor=none;fillColor=none;align=center;verticalAlign=middle;whiteSpace=wrap;rounded=0;dashed=1;" parent="1" vertex="1">
          <mxGeometry x="577" y="461" width="40" height="20" as="geometry" />
        </mxCell>
        <mxCell id="EwHTVLRrVT_rf0cmMfTu-63" value="&lt;font style=&quot;font-size: 24px&quot; face=&quot;Verdana&quot;&gt;F&lt;/font&gt;" style="text;html=1;strokeColor=none;fillColor=none;align=center;verticalAlign=middle;whiteSpace=wrap;rounded=0;dashed=1;" parent="1" vertex="1">
          <mxGeometry x="737" y="461" width="40" height="20" as="geometry" />
        </mxCell>
        <mxCell id="EwHTVLRrVT_rf0cmMfTu-64" value="&lt;font style=&quot;font-size: 24px&quot; face=&quot;Verdana&quot;&gt;R&lt;/font&gt;" style="text;html=1;strokeColor=none;fillColor=none;align=center;verticalAlign=middle;whiteSpace=wrap;rounded=0;dashed=1;" parent="1" vertex="1">
          <mxGeometry x="220" y="511" width="40" height="20" as="geometry" />
        </mxCell>
        <mxCell id="EwHTVLRrVT_rf0cmMfTu-65" value="&lt;font style=&quot;font-size: 24px&quot; face=&quot;Verdana&quot;&gt;L&lt;/font&gt;" style="text;html=1;strokeColor=none;fillColor=none;align=center;verticalAlign=middle;whiteSpace=wrap;rounded=0;dashed=1;" parent="1" vertex="1">
          <mxGeometry x="240" y="330" width="40" height="20" as="geometry" />
        </mxCell>
        <mxCell id="EwHTVLRrVT_rf0cmMfTu-67" value="&lt;font style=&quot;font-size: 24px&quot; face=&quot;Verdana&quot;&gt;M&lt;/font&gt;" style="text;html=1;strokeColor=none;fillColor=none;align=center;verticalAlign=middle;whiteSpace=wrap;rounded=0;dashed=1;" parent="1" vertex="1">
          <mxGeometry x="20" y="330" width="40" height="20" as="geometry" />
        </mxCell>
        <mxCell id="EwHTVLRrVT_rf0cmMfTu-72" value="" style="endArrow=none;html=1;strokeWidth=3;" parent="1" edge="1">
          <mxGeometry width="50" height="50" relative="1" as="geometry">
            <mxPoint x="200" y="80" as="sourcePoint" />
            <mxPoint x="680" y="80" as="targetPoint" />
          </mxGeometry>
        </mxCell>
        <mxCell id="EwHTVLRrVT_rf0cmMfTu-73" value="" style="endArrow=none;html=1;strokeWidth=3;" parent="1" edge="1">
          <mxGeometry width="50" height="50" relative="1" as="geometry">
            <mxPoint x="200" y="140" as="sourcePoint" />
            <mxPoint x="680" y="140" as="targetPoint" />
          </mxGeometry>
        </mxCell>
        <mxCell id="EwHTVLRrVT_rf0cmMfTu-74" value="" style="endArrow=oval;html=1;strokeWidth=3;endFill=1;endSize=10;" parent="1" edge="1">
          <mxGeometry width="50" height="50" relative="1" as="geometry">
            <mxPoint x="467" y="190" as="sourcePoint" />
            <mxPoint x="467" y="80" as="targetPoint" />
          </mxGeometry>
        </mxCell>
        <mxCell id="EwHTVLRrVT_rf0cmMfTu-75" value="" style="endArrow=oval;html=1;strokeWidth=3;endFill=1;endSize=10;" parent="1" edge="1">
          <mxGeometry width="50" height="50" relative="1" as="geometry">
            <mxPoint x="582" y="190" as="sourcePoint" />
            <mxPoint x="582" y="139.99999999999994" as="targetPoint" />
          </mxGeometry>
        </mxCell>
        <mxCell id="EwHTVLRrVT_rf0cmMfTu-76" value="&lt;div style=&quot;font-size: 24px&quot;&gt;&lt;font style=&quot;font-size: 24px&quot;&gt;Rede DC&lt;br&gt;&lt;/font&gt;&lt;/div&gt;" style="text;html=1;strokeColor=none;fillColor=none;align=center;verticalAlign=middle;whiteSpace=wrap;rounded=0;dashed=1;" parent="1" vertex="1">
          <mxGeometry x="10" y="100" width="130" height="20" as="geometry" />
        </mxCell>
        <mxCell id="EwHTVLRrVT_rf0cmMfTu-78" value="&lt;font style=&quot;font-size: 24px&quot;&gt;(+110V)&lt;/font&gt;" style="text;html=1;strokeColor=none;fillColor=none;align=center;verticalAlign=middle;whiteSpace=wrap;rounded=0;dashed=1;" parent="1" vertex="1">
          <mxGeometry x="132" y="68" width="40" height="20" as="geometry" />
        </mxCell>
        <mxCell id="EwHTVLRrVT_rf0cmMfTu-79" value="&lt;font style=&quot;font-size: 24px&quot;&gt;(-110V)&lt;/font&gt;" style="text;html=1;strokeColor=none;fillColor=none;align=center;verticalAlign=middle;whiteSpace=wrap;rounded=0;dashed=1;" parent="1" vertex="1">
          <mxGeometry x="133" y="130" width="40" height="20" as="geometry" />
        </mxCell>
      </root>
    </mxGraphModel>
  </diagram>
</mxfile>
